<?xml version="1.0" encoding="utf-8"?>
<!-- Generator: Adobe Illustrator 16.0.0, SVG Export Plug-In . SVG Version: 6.00 Build 0)  -->
<!DOCTYPE svg PUBLIC "-//W3C//DTD SVG 1.1//EN" "http://www.w3.org/Graphics/SVG/1.1/DTD/svg11.dtd">
<svg version="1.1" id="Artwork" xmlns="http://www.w3.org/2000/svg" xmlns:xlink="http://www.w3.org/1999/xlink" x="0px" y="0px"
	 width="1024px" height="768px" viewBox="0 0 1024 768" enable-background="new 0 0 1024 768" xml:space="preserve">
<g>
	<path fill="#333333" d="M146.45,143.25V624.9c0,30.449,24.75,55.35,55.35,55.35h620.55c30.45,0,55.2-24.75,55.2-55.35V143.25
		c0-30.45-24.75-55.35-55.2-55.35H201.8C171.35,87.9,146.45,112.65,146.45,143.25z M822.2,643.35H201.8c-10.2,0-18.6-8.25-18.6-18.6
		v-361.2h657.45V624.9C840.8,634.95,832.4,643.35,822.2,643.35z M840.8,143.25v83.55H183.2v-83.55c0-10.2,8.25-18.6,18.6-18.6
		h620.55C832.4,124.65,840.8,133.05,840.8,143.25z"/>
	<path fill="#333333" d="M234.35,194.1c4.8,0,9.6-1.95,13.05-5.4c3.45-3.45,5.4-8.1,5.4-13.05c0-4.8-1.95-9.6-5.4-13.05
		c-6.9-6.9-19.2-6.9-25.95,0c-3.45,3.45-5.4,8.1-5.4,13.05c0,4.8,1.95,9.6,5.4,13.05C224.75,192.15,229.4,194.1,234.35,194.1z"/>
	<path fill="#333333" d="M303.8,194.1c4.8,0,9.6-1.95,12.9-5.4c3.45-3.45,5.4-8.1,5.4-13.05c0-4.8-1.95-9.6-5.4-13.05
		c-6.9-6.9-19.05-6.9-25.95,0c-3.45,3.45-5.4,8.1-5.4,13.05c0,4.8,1.95,9.6,5.4,13.05C294.05,192.15,298.85,194.1,303.8,194.1z"/>
	<path fill="#333333" d="M373.1,194.1c4.8,0,9.6-1.95,13.05-5.4c3.45-3.45,5.4-8.1,5.4-13.05c0-4.8-1.95-9.6-5.4-13.05
		c-6.9-6.9-19.2-6.9-25.95,0c-3.45,3.45-5.4,8.1-5.4,13.05c0,4.8,1.95,9.6,5.4,13.05C363.5,192.15,368.3,194.1,373.1,194.1z"/>
	<path fill="#333333" d="M634.4,348.45c-7.801-6.601-19.351-5.55-25.95,2.1c-6.601,7.8-5.55,19.351,2.1,25.95l92.7,78.45
		l-92.7,78.75c-7.8,6.6-8.7,18.149-2.1,25.95c3.6,4.35,8.85,6.449,13.95,6.449c4.199,0,8.399-1.5,11.85-4.35l109.35-92.7
		c4.051-3.45,6.45-8.55,6.45-14.1c0-5.4-2.399-10.5-6.45-13.95L634.4,348.45z"/>
	<path fill="#333333" d="M320.6,454.95l92.55-78.45c7.8-6.6,8.7-18.15,2.1-25.95c-6.6-7.8-18.15-8.7-25.95-2.1L280.1,440.85
		c-4.05,3.45-6.45,8.551-6.45,13.95c0,5.4,2.4,10.5,6.45,13.95l109.2,92.7c3.45,3,7.65,4.35,11.85,4.35
		c5.25,0,10.35-2.25,13.95-6.45c6.6-7.8,5.7-19.35-2.1-25.949L320.6,454.95z"/>
	<path fill="#333333" d="M564.65,322.35c-9.45-3.75-20.101,0.75-23.851,10.2L448.25,564c-3.75,9.45,0.75,20.1,10.2,23.85
		c2.25,0.9,4.5,1.351,6.75,1.351c7.35,0,14.25-4.351,17.1-11.55l92.55-231.45C578.75,336.75,574.1,326.1,564.65,322.35z"/>
</g>
</svg>
