<?xml version="1.0" encoding="utf-8"?>
<!-- Generator: Adobe Illustrator 16.0.0, SVG Export Plug-In . SVG Version: 6.00 Build 0)  -->
<!DOCTYPE svg PUBLIC "-//W3C//DTD SVG 1.1//EN" "http://www.w3.org/Graphics/SVG/1.1/DTD/svg11.dtd">
<svg version="1.1" id="Capa_1" xmlns="http://www.w3.org/2000/svg" xmlns:xlink="http://www.w3.org/1999/xlink" x="0px" y="0px"
	 width="1024px" height="768px" viewBox="0 0 1024 768" enable-background="new 0 0 1024 768" xml:space="preserve">
<path fill="#333333" d="M185.407,231.096"/>
<path fill="#333333" d="M479.306,212.721H254.694c-12.531,0-22.694,8.229-22.694,18.375c0,10.146,10.163,18.375,22.694,18.375
	h224.612c12.533,0,22.694-8.229,22.694-18.375C502,220.948,491.839,212.721,479.306,212.721z"/>
<path fill="#333333" d="M479.306,368.87H254.694c-12.531,0-22.694,8.229-22.694,18.376c0,10.146,10.163,18.374,22.694,18.374
	h224.612c12.533,0,22.694-8.229,22.694-18.374C502,377.097,491.839,368.87,479.306,368.87z"/>
<path fill="#333333" d="M479.306,290.795H254.694c-12.531,0-22.694,8.229-22.694,18.375c0,10.146,10.163,18.375,22.694,18.375
	h224.612c12.533,0,22.694-8.229,22.694-18.375C502,299.022,491.839,290.795,479.306,290.795z"/>
<circle fill="none" cx="689.998" cy="483.781" r="69"/>
<path fill="none" d="M689.998,589.781c-11.849,0-23.242-1.945-33.881-5.531v80.127l28.394-30.983c0,0,3.899-3.911,6.189-3.919
	c2.391-0.008,6.504,4.174,6.504,4.174l26.681,28.745v-78.146C713.244,587.835,701.849,589.781,689.998,589.781z"/>
<path fill="none" d="M583.998,483.781c0-58.542,47.458-106,106-106s106,47.458,106,106c0,31.675-13.898,60.1-35.923,79.523v79.97
	H822.2c10.2,0,18.6-8.398,18.45-18.449l0.149-481.65c0-10.2-8.399-18.6-18.45-18.6H201.8c-10.35,0-18.6,8.399-18.6,18.6v481.5
	c0,10.35,8.4,18.6,18.6,18.6h418.126v-79.966C597.898,543.885,583.998,515.458,583.998,483.781z"/>
<path fill="#333333" d="M822.35,87.825H201.8c-30.45,0-55.35,24.75-55.35,55.35v481.65c0,30.449,24.75,55.35,55.35,55.35h418.126
	v-36.9H201.8c-10.2,0-18.6-8.25-18.6-18.6v-481.5c0-10.2,8.25-18.6,18.6-18.6h620.55c10.051,0,18.45,8.399,18.45,18.6l-0.149,481.65
	c0.149,10.051-8.25,18.449-18.45,18.449h-62.125v36.9h62.274c30.45,0,55.2-24.75,55.2-55.35v-481.65
	C877.55,112.725,852.8,87.825,822.35,87.825z"/>
<path fill="#333333" d="M760.075,563.305c22.024-19.424,35.923-47.849,35.923-79.523c0-58.542-47.458-106-106-106
	s-106,47.458-106,106c0,31.677,13.9,60.104,35.928,79.527v79.966v36.9v52.907c0,0-0.326,6.584,4.251,8.479
	c4.51,1.868,9.556-2.467,9.556-2.467l57.713-57.712l57.388,57.387c0,0,3.319,4.258,6.991,2.737c3.731-1.546,4.251-7.649,4.251-7.649
	v-53.683v-36.9V563.305z M689.998,414.781c38.107,0,69,30.893,69,69s-30.893,69-69,69s-69-30.893-69-69
	S651.891,414.781,689.998,414.781z M697.204,633.648c0,0-4.113-4.182-6.504-4.174c-2.29,0.008-6.189,3.919-6.189,3.919
	l-28.394,30.983V584.25c10.639,3.586,22.032,5.531,33.881,5.531c11.851,0,23.246-1.946,33.887-5.533v78.146L697.204,633.648z"/>
</svg>
