<?xml version="1.0" encoding="utf-8"?>
<!-- Generator: Adobe Illustrator 16.0.0, SVG Export Plug-In . SVG Version: 6.00 Build 0)  -->
<!DOCTYPE svg PUBLIC "-//W3C//DTD SVG 1.1//EN" "http://www.w3.org/Graphics/SVG/1.1/DTD/svg11.dtd">
<svg version="1.1" id="Layer_1" xmlns="http://www.w3.org/2000/svg" xmlns:xlink="http://www.w3.org/1999/xlink" x="0px" y="0px"
	 width="1024px" height="768px" viewBox="0 0 1024 768" enable-background="new 0 0 1024 768" xml:space="preserve">
<g>
	<path fill="#333333" d="M735.393,160.607C675.804,100.89,596.353,68,512,68s-163.804,32.89-223.393,92.607
		C229.019,220.325,196,299.647,196,384s32.89,163.804,92.607,223.393C348.325,666.98,427.647,700,512,700
		s163.804-32.89,223.393-92.607C794.98,547.675,828,468.353,828,384S795.11,220.196,735.393,160.607z M799.367,369.812H676.836
		c-1.162-48.754-7.996-95.703-19.992-137.363c23.345-11.996,45.144-27.086,65.135-44.885
		C767.122,235.802,795.885,299.519,799.367,369.812z M526.188,398.188h122.401c-1.03,44.886-7.222,87.836-17.928,126.271
		c-33.019-13.284-68.229-21.022-104.474-22.699V398.188z M701.6,167.83c-16.509,14.575-34.566,26.957-53.655,37.275
		c-4.899-13.672-10.446-26.57-16.638-38.694c-12.254-24.249-26.184-44.111-41.531-59.331
		C631.693,118.818,669.742,139.841,701.6,167.83z M526.188,100.761c29.536,6.578,57.396,33.792,79.838,78.162
		c6.064,11.996,11.48,24.764,16.252,38.307c-30.311,12.511-62.684,19.863-96.09,21.54V100.761z M630.791,244.444
		c10.576,38.178,16.638,80.87,17.67,125.497H526.188V267.273C562.561,265.597,597.771,257.729,630.791,244.444L630.791,244.444z
		 M497.813,369.812H375.411c1.032-44.627,7.094-87.319,17.67-125.497c33.019,13.414,68.359,21.153,104.601,22.701v102.796H497.813z
		 M497.941,100.761v138.008c-33.406-1.677-65.909-9.029-96.09-21.54c4.772-13.543,10.189-26.312,16.251-38.307
		C440.546,134.553,468.405,107.339,497.941,100.761z M434.354,107.081c-15.349,15.219-29.279,35.211-41.532,59.331
		c-6.062,12.124-11.608,25.021-16.638,38.694c-19.089-10.318-37.017-22.701-53.656-37.275
		C354.387,139.841,392.436,118.818,434.354,107.081z M302.15,187.564c19.992,17.799,41.789,32.761,65.135,44.885
		c-11.995,41.789-18.96,88.608-19.992,137.363H224.763C228.245,299.519,257.007,235.802,302.15,187.564z M224.763,398.188h122.531
		c1.16,49.142,8.125,96.22,20.25,138.138c-23.216,11.993-45.014,26.826-64.877,44.626
		C257.136,532.584,228.245,468.739,224.763,398.188L224.763,398.188z M323.045,600.686c16.51-14.445,34.438-26.828,53.397-37.017
		c4.901,13.285,10.318,26.054,16.38,37.92c12.253,24.248,26.183,44.11,41.532,59.459
		C392.694,649.311,354.774,628.416,323.045,600.686L323.045,600.686z M497.941,667.239c-29.537-6.578-57.396-33.793-79.839-78.162
		c-5.933-11.737-11.221-24.248-15.993-37.533c30.181-12.511,62.555-19.862,95.832-21.409V667.239L497.941,667.239z M393.468,524.458
		c-10.705-38.435-16.896-81.385-17.928-126.271h122.402v103.571C461.698,503.306,426.486,511.045,393.468,524.458L393.468,524.458z
		 M526.316,667.239V530.134c33.277,1.677,65.65,8.899,95.832,21.41c-4.772,13.285-10.059,25.796-15.993,37.533
		C583.713,633.446,555.854,660.661,526.316,667.239L526.316,667.239z M589.903,660.919c15.35-15.22,29.28-35.212,41.533-59.458
		c6.062-11.868,11.479-24.636,16.38-37.922c18.96,10.191,36.887,22.572,53.397,37.018
		C669.484,628.416,631.564,649.311,589.903,660.919L589.903,660.919z M721.721,580.951c-19.863-17.67-41.66-32.632-64.877-44.625
		c12.124-41.918,19.09-89.125,20.25-138.138h122.531C796.013,468.739,767.122,532.584,721.721,580.951L721.721,580.951z"/>
</g>
</svg>
