<?xml version="1.0" encoding="utf-8"?>
<!-- Generator: Adobe Illustrator 16.0.0, SVG Export Plug-In . SVG Version: 6.00 Build 0)  -->
<!DOCTYPE svg PUBLIC "-//W3C//DTD SVG 1.1//EN" "http://www.w3.org/Graphics/SVG/1.1/DTD/svg11.dtd">
<svg version="1.1" id="Layer_1" xmlns="http://www.w3.org/2000/svg" xmlns:xlink="http://www.w3.org/1999/xlink" x="0px" y="0px"
	 width="1024px" height="768px" viewBox="0 0 1024 768" enable-background="new 0 0 1024 768" xml:space="preserve">
<path fill="#333333" d="M501.971,111.886C395.1,116.9,306.719,200.423,296.69,307.138c-5.015,65.031,18.334,130.22,66.755,175.193
	c30.087,28.363,46.697,63.465,46.697,101.856v138.525c0,10.029,6.738,16.768,16.767,16.768h68.479v11.752
	c0,10.029,6.738,16.768,16.767,16.768c10.029,0,16.768-6.738,16.768-16.768V739.48h68.479c8.305,0,16.767-6.738,16.767-15.044
	V584.188c0-38.392,16.768-73.493,45.131-100.133c43.406-40.116,68.479-98.409,68.479-156.859
	C727.31,205.28,625.453,105.147,501.971,111.886z M445.245,607.536h135.234v31.811H445.245V607.536z M445.245,706.103v-33.378
	h135.234v33.378H445.245z M635.481,458.982c-32.907,31.34-52.652,71.613-54.846,115.176H444.774
	c-2.978-42.466-22.722-83.052-56.256-115.176c-41.683-38.393-61.741-91.828-56.726-148.555
	c8.305-90.104,81.799-160.307,171.902-165.321c103.424-5.014,190.237,78.508,190.237,181.932
	C693.932,377.184,672.307,424.037,635.481,458.982z"/>
<path fill="#333333" d="M553.683,285.512l1.724-71.77c0-12.693-16.767-22.722-28.362-11.753L378.489,350.544
	c-12.85,12.85-4.544,28.363,11.753,28.363h78.508l-6.738,76.784c0,17.237,17.394,21.938,28.363,13.319l155.292-155.292
	c9.716-8.306,6.425-28.363-11.752-28.363h-80.232V285.512L553.683,285.512z M498.681,414.009l5.014-48.421
	c1.254-9.402-3.29-18.335-16.767-18.335h-56.727l90.104-90.104l-1.725,46.697c0,13.79,9.716,16.767,16.768,16.767h56.727
	L498.681,414.009z"/>
<rect x="495.232" fill="#333333" width="33.378" height="70.046"/>
<path fill="#333333" d="M293.824,83.776l49.529,49.529l-23.601,23.601l-49.531-49.529L293.824,83.776L293.824,83.776z"/>
<rect x="186.528" y="308.861" fill="#333333" width="70.046" height="33.377"/>
<rect x="767.426" y="308.861" fill="#333333" width="70.046" height="33.377"/>
<path fill="#333333" d="M704.632,156.87L681.03,133.27L730.56,83.74l23.601,23.601L704.632,156.87z"/>
</svg>
