<?xml version="1.0" encoding="utf-8"?>
<!-- Generator: Adobe Illustrator 16.0.0, SVG Export Plug-In . SVG Version: 6.00 Build 0)  -->
<!DOCTYPE svg PUBLIC "-//W3C//DTD SVG 1.1//EN" "http://www.w3.org/Graphics/SVG/1.1/DTD/svg11.dtd">
<svg version="1.1" id="Capa_1" xmlns="http://www.w3.org/2000/svg" xmlns:xlink="http://www.w3.org/1999/xlink" x="0px" y="0px"
	 width="1024px" height="768px" viewBox="0 0 1024 768" enable-background="new 0 0 1024 768" xml:space="preserve">
<path fill="#FBC545" d="M641.643,114.642v502.316v0.951c-0.949,17.724-13.056,25.245-24.295,25.245l0,0
	c-7.435,0-14.957-3.72-24.294-10.288l-145.68-115.854h-56.976v111.186c0,31.729-25.245,56.977-56.976,56.977h-50.405
	c-31.729,0-56.976-25.245-56.976-56.977V517.014h-42.017C153.245,517.015,128,491.77,128,460.99V258.421
	c0-30.778,25.245-56.023,56.024-56.023h264.299l141.012-113c0.951-0.951,1.902-1.902,2.767-1.902c0,0,9.337-4.669,19.626-4.669
	C629.452,82.826,641.643,95.968,641.643,114.642z M184.11,482.518h59.742h129.772h63.461V236.979H184.11
	c-11.239,0-21.441,9.337-21.441,21.441v202.656C162.583,473.181,171.92,482.518,184.11,482.518z M355.901,517.015h-95.276V628.2
	c0,12.104,10.288,22.393,22.393,22.393h50.405c12.104,0,22.393-10.288,22.393-22.393V517.014L355.901,517.015L355.901,517.015z
	 M607.06,119.311L470.717,228.507v263.351L606.11,600.186V119.311H607.06z"/>
</svg>
