<?xml version="1.0" encoding="utf-8"?>
<!-- Generator: Adobe Illustrator 16.0.0, SVG Export Plug-In . SVG Version: 6.00 Build 0)  -->
<!DOCTYPE svg PUBLIC "-//W3C//DTD SVG 1.1//EN" "http://www.w3.org/Graphics/SVG/1.1/DTD/svg11.dtd">
<svg version="1.1" id="Capa_1" xmlns="http://www.w3.org/2000/svg" xmlns:xlink="http://www.w3.org/1999/xlink" x="0px" y="0px"
	 width="1024px" height="768px" viewBox="0 0 1024 768" enable-background="new 0 0 1024 768" xml:space="preserve">
<g>
	<g>
		<path fill="#333333" d="M790.717,339.647l-43.589-7.395c-4.54-14.659-10.378-28.799-17.513-42.29l25.686-35.935
			c10.897-15.308,9.211-36.194-4.152-49.426l-38.657-38.659c-7.266-7.265-16.864-11.286-27.113-11.286
			c-8.043,0-15.696,2.464-22.184,7.134l-36.065,25.687c-14.009-7.394-28.667-13.492-43.846-18.032l-7.266-43.069
			c-3.112-18.552-19.069-32.043-37.879-32.043h-54.616c-18.81,0-34.767,13.491-37.88,32.043l-7.523,44.107
			c-14.53,4.54-28.67,10.508-42.162,17.772l-35.675-25.687c-6.486-4.67-14.27-7.134-22.313-7.134
			c-10.249,0-19.978,4.021-27.113,11.286l-38.788,38.658c-13.232,13.233-15.048,34.119-4.151,49.427l25.945,36.453
			c-7.135,13.622-12.843,27.762-17.253,42.421l-43.069,7.265c-18.551,3.114-32.042,19.07-32.042,37.881v54.613
			c0,18.81,13.492,34.767,32.042,37.881l44.107,7.523c4.541,14.53,10.508,28.67,17.772,42.161l-25.556,35.545
			c-10.897,15.309-9.21,36.193,4.152,49.426l38.658,38.659c7.265,7.265,16.864,11.287,27.112,11.287
			c8.043,0,15.697-2.465,22.184-7.136l36.454-25.945c13.102,6.874,26.854,12.453,40.994,16.863l7.265,43.59
			c3.113,18.55,19.069,32.042,37.879,32.042h54.745c18.811,0,34.767-13.492,37.881-32.042l7.395-43.59
			c14.659-4.54,28.798-10.378,42.29-17.512l35.935,25.685c6.486,4.671,14.27,7.137,22.313,7.137l0,0
			c10.247,0,19.848-4.023,27.112-11.287l38.658-38.659c13.232-13.231,15.048-34.117,4.152-49.426l-25.687-36.064
			c7.135-13.62,13.103-27.761,17.513-42.29l43.589-7.264c18.551-3.114,32.042-19.071,32.042-37.881v-54.614
			C822.759,358.717,809.268,342.76,790.717,339.647z M787.732,432.142c0,1.686-1.167,3.114-2.854,3.372l-54.486,9.081
			c-6.876,1.168-12.323,6.228-14.01,12.844c-4.93,19.069-12.454,37.359-22.573,54.354c-3.502,5.968-3.243,13.361,0.778,19.069
			l32.043,45.146c0.908,1.298,0.778,3.244-0.388,4.411l-38.66,38.659c-0.908,0.907-1.816,1.036-2.464,1.036
			c-0.778,0-1.428-0.258-1.946-0.647l-45.016-32.043c-5.579-4.021-13.103-4.28-19.069-0.778
			c-16.994,10.118-35.286,17.644-54.356,22.571c-6.745,1.688-11.805,7.266-12.843,14.012l-9.21,54.485
			c-0.26,1.688-1.687,2.854-3.373,2.854h-54.615c-1.687,0-3.114-1.167-3.374-2.854l-9.08-54.485
			c-1.167-6.876-6.227-12.324-12.843-14.012c-18.55-4.798-36.453-12.192-53.188-21.793c-2.725-1.557-5.838-2.335-8.821-2.335
			c-3.503,0-7.136,1.038-10.119,3.244l-45.404,32.301c-0.649,0.389-1.297,0.649-1.946,0.649c-0.52,0-1.557-0.131-2.465-1.038
			l-38.659-38.659c-1.167-1.167-1.297-2.983-0.389-4.411l31.913-44.755c4.021-5.708,4.281-13.232,0.778-19.199
			c-10.118-16.864-17.902-35.157-22.832-54.226c-1.816-6.617-7.265-11.676-14.011-12.843l-54.874-9.342
			c-1.687-0.258-2.854-1.686-2.854-3.372v-54.613c0-1.686,1.167-3.115,2.854-3.374l54.096-9.081
			c6.875-1.168,12.453-6.228,14.14-12.973c4.8-19.069,12.194-37.491,22.183-54.484c3.502-5.968,3.113-13.363-0.908-18.94
			l-32.302-45.404c-0.908-1.298-0.778-3.245,0.39-4.411l38.658-38.659c0.908-0.908,1.816-1.037,2.465-1.037
			c0.778,0,1.427,0.259,1.946,0.649l44.756,31.912c5.708,4.021,13.232,4.281,19.2,0.778c16.864-10.119,35.156-17.902,54.226-22.833
			c6.615-1.815,11.675-7.264,12.843-14.01l9.34-54.875c0.259-1.686,1.687-2.854,3.373-2.854h54.616c1.687,0,3.113,1.168,3.372,2.854
			l9.081,54.096c1.168,6.876,6.227,12.455,12.973,14.141c19.589,4.93,38.27,12.583,55.653,22.832
			c5.966,3.502,13.361,3.243,19.069-0.778l44.756-32.172c0.648-0.389,1.297-0.648,1.945-0.648c0.519,0,1.558,0.129,2.466,1.038
			l38.658,38.659c1.167,1.168,1.297,2.983,0.389,4.411l-32.042,45.015c-4.021,5.578-4.281,13.103-0.779,19.069
			c10.119,16.995,17.644,35.286,22.572,54.355c1.688,6.746,7.266,11.806,14.011,12.844l54.485,9.21
			c1.688,0.259,2.854,1.687,2.854,3.373v54.614H787.732z"/>
		<path fill="#333333" d="M512.063,270.763c-73.944,0-134.008,60.063-134.008,134.007c0,73.943,60.063,134.007,134.008,134.007
			c73.943,0,134.008-60.063,134.008-134.007C646.071,330.825,586.007,270.763,512.063,270.763z M512.063,503.751
			c-54.616,0-98.982-44.367-98.982-98.981s44.366-98.98,98.982-98.98c54.614,0,98.981,44.366,98.981,98.98
			S566.678,503.751,512.063,503.751z"/>
	</g>
</g>
</svg>
