<?xml version="1.0" encoding="utf-8"?>
<!-- Generator: Adobe Illustrator 16.0.0, SVG Export Plug-In . SVG Version: 6.00 Build 0)  -->
<!DOCTYPE svg PUBLIC "-//W3C//DTD SVG 1.1//EN" "http://www.w3.org/Graphics/SVG/1.1/DTD/svg11.dtd">
<svg version="1.1" id="Capa_1" xmlns="http://www.w3.org/2000/svg" xmlns:xlink="http://www.w3.org/1999/xlink" x="0px" y="0px"
	 width="457.205px" height="457.205px" viewBox="0 0 457.205 457.205" enable-background="new 0 0 457.205 457.205"
	 xml:space="preserve">
<g>
	<g>
		<path fill="#333333" d="M190.771,125.096H82.454c-11.168,0-20.253,8.884-20.253,19.816v209.537
			c0,10.923,9.085,19.809,20.253,19.809h108.312c11.171,0,20.252-8.886,20.252-19.809V144.912
			C211.023,133.987,201.942,125.096,190.771,125.096z M197.595,354.449c0,3.518-3.062,6.382-6.824,6.382H82.454
			c-3.765,0-6.826-2.864-6.826-6.382v-31.663h121.968L197.595,354.449L197.595,354.449z M197.595,153.446H75.628v-8.534
			c0-3.523,3.067-6.388,6.826-6.388h108.312c3.768,0,6.825,2.866,6.825,6.388v8.534H197.595z"/>
		<circle fill="#333333" cx="136.612" cy="340.035" r="13.709"/>
		<path fill="#333333" d="M373.36,82.947H171.958c-11.929,0-21.641,9.708-21.641,21.64v16.029h17.903v-16.029
			c0-2.058,1.679-3.736,3.737-3.736H373.36c2.062,0,3.731,1.678,3.731,3.736v129.787c0,2.06-1.67,3.737-3.731,3.737H217.588v17.903
			h46.122v7.833h-26.295c-4.94,0-8.949,4.019-8.949,8.953c0,4.934,4.009,8.952,8.949,8.952h69.934c4.939,0,8.953-4.019,8.953-8.952
			c0-4.935-4.014-8.953-8.953-8.953h-25.735v-7.833h91.747c11.934,0,21.644-9.708,21.644-21.64V104.589
			C395.004,92.655,385.294,82.947,373.36,82.947z"/>
	</g>
</g>
</svg>
